<svg width="100" height="100" viewBox="0 0 100 100" fill="none" xmlns="http://www.w3.org/2000/svg">
<g clip-path="url(#clip0_122_61)">
<path fill-rule="evenodd" clip-rule="evenodd" d="M35.3804 70.0904C35.3829 70.0931 35.3832 70.1004 35.3818 70.1124C35.3833 70.0996 35.3833 70.0927 35.3804 70.0904Z" fill="white"/>
<path fill-rule="evenodd" clip-rule="evenodd" d="M35.3804 70.0904C35.3833 70.0927 35.3833 70.0996 35.3818 70.1124C35.3762 70.1624 35.3601 70.3048 35.5107 70.6362L35.5239 70.6658L35.5377 70.6951C36.1573 72.017 36.691 74.4199 36.691 77.8454C36.691 78.4878 36.6974 79.1301 36.7102 79.7724C36.7524 81.8939 36.8644 84.0149 37.0461 86.1349L37.0471 86.1416L37.0474 86.149C37.3367 89.428 38.3095 92.556 40.1368 95.1829L40.2159 95.2962L40.3002 95.4056C42.8468 98.7016 47.0442 100.009 51.0345 100.009C53.5036 100.009 56.0233 99.4437 58.2067 98.2753C59.4247 97.6235 60.538 96.7839 61.4794 95.7498C63.5547 93.4756 64.9231 90.6505 65.7371 87.58C66.3915 90.4469 67.4143 93.0062 69.1355 95.185C69.2017 95.2688 69.269 95.3521 69.3373 95.4348L69.382 95.4886L69.4274 95.5413C72.1122 98.6292 76.2583 100.009 80.2946 100.009C84.3309 100.009 88.4763 98.6293 91.1612 95.5413C91.184 95.5151 91.2068 95.4888 91.2294 95.4624C93.6013 92.6946 94.7674 89.2341 95.3938 85.3148C96.411 78.4263 97.1327 62.8216 94.1332 50.6654C93.9258 50.0637 93.6953 49.4776 93.4365 48.909C92.8285 47.5735 92.0639 46.335 91.0743 45.2201C90.5017 44.5391 89.8516 43.9497 89.152 43.4311C90.3498 42.76 91.4689 41.9626 92.4879 41.057C96.5395 37.456 99.0074 32.1443 98.545 26.2586C97.9599 18.8123 93.9305 12.7412 89.144 8.36184C88.7419 7.99392 88.3344 7.63795 87.9232 7.2941C82.9491 3.13486 77.5309 0.394941 72.0241 0.0321932C71.6566 0.00798768 71.2888 -0.00563316 70.9206 -0.00838466H70.9187C69.703 -0.0170816 68.4523 0.113169 67.1679 0.511177C66.3202 0.773885 65.5271 1.17861 64.8045 1.68015C63.9451 2.27657 63.1854 3.00989 62.5522 3.80412C61.731 4.83397 61.1224 5.9662 60.7846 7.03513C59.9671 9.6218 60.0139 11.9791 60.1608 14.2945C60.2976 16.4493 60.5726 18.6231 60.8275 20.6387C61.1205 22.9546 61.3871 25.0619 61.3871 26.691C61.3871 32.4078 63.7901 37.3725 67.4782 40.813C68.6165 41.8749 69.8772 42.7917 71.2275 43.5405C70.5943 44.0166 69.9945 44.5413 69.4625 45.1478C68.1001 46.6622 67.1347 48.3895 66.4373 50.296C65.8125 52.0041 65.4028 53.8559 65.1153 55.8272L65.107 55.8829L65.1002 55.9392C65.0302 56.4994 64.9734 57.1017 64.9167 57.7043L64.9148 57.7242C64.9049 57.8293 64.895 57.9344 64.885 58.0393L64.8303 57.8567C64.7028 57.4305 64.5753 57.004 64.4346 56.5865C62.5261 50.6209 59.261 45.5507 54.6959 41.9168C49.9453 38.1353 43.8513 36.3596 37.1863 36.3596C34.7012 36.3596 32.2797 36.7104 30.006 37.4564C29.3788 37.6622 28.7628 37.8981 28.1598 38.1651C28.1243 38.1801 28.0903 38.1963 28.0564 38.2123C28.0253 38.2271 27.9942 38.2418 27.9619 38.2558C27.5465 37.8392 27.1084 37.4429 26.6282 37.0912C24.1703 35.2909 21.1623 34.5725 18.2009 34.5725C14.5535 34.5725 10.7837 36.1145 8.30873 38.8371C6.15034 41.2116 4.65222 44.1412 3.65181 47.4155L3.63122 47.4834L3.61224 47.5513C2.77035 50.5824 2.19715 53.8059 1.87229 57.2173C1.55877 60.5095 1.40039 63.7373 1.40039 66.8995C1.40039 70.0618 1.55855 73.3223 1.871 76.6814L1.87712 76.7448L1.88419 76.8079C2.28718 80.2739 2.93654 83.5507 3.84992 86.6337L3.86315 86.6782C4.85352 90.0099 6.32847 92.989 8.45059 95.4297L8.49498 95.4802L8.54002 95.5298C11.0156 98.2414 14.7513 99.897 18.4245 99.897C19.8201 99.897 21.2411 99.7533 22.6087 99.4252C25.2497 98.7915 27.6915 97.4697 29.367 95.1656L29.4008 95.1189L29.4339 95.0716C31.2867 92.4081 32.2211 89.2145 32.42 85.9042C32.6503 83.2502 32.7678 80.564 32.7678 77.8454C32.7678 76.1067 32.9145 74.6438 33.1446 73.4568C33.3632 72.3289 33.6571 71.45 33.9718 70.8205L33.9869 70.7906L34.0017 70.7607C34.2407 70.2677 34.2335 70.1061 34.2273 70.0757C34.2384 70.0991 34.3057 70.1871 34.6177 70.1871C35.1164 70.1871 35.2936 70.1199 35.3538 70.0971L35.354 70.097L35.3556 70.0964L35.3611 70.0943L35.3643 70.0932L35.3669 70.0923L35.3687 70.0917C35.3696 70.0914 35.3705 70.0911 35.3713 70.0909L35.3723 70.0906C35.3746 70.09 35.3764 70.0896 35.3779 70.0896L35.3804 70.0904ZM71.1072 3.14968C71.7174 2.96062 72.4168 2.87196 73.1844 2.87762C77.1082 2.90695 82.8107 5.40289 87.4555 9.55974C91.5939 13.2633 94.8927 18.2853 95.3462 24.0558C95.6845 28.3613 93.8343 32.1879 90.7861 34.6814C88.4895 36.5601 85.5128 37.6821 82.2796 37.6821C77.5514 37.6821 73.0209 34.9347 70.7417 30.5099C69.7749 28.6331 69.2132 26.4545 69.2132 24.0558C69.2132 21.7498 68.88 19.1673 68.5514 16.6204C68.0747 12.9246 67.6075 9.30359 68.1819 6.7102C68.5713 4.95224 69.4392 3.66647 71.1072 3.14968ZM14.699 39.9158C16.188 38.2777 18.1237 37.4588 20.5062 37.4588C24.75 37.4588 27.3931 39.3946 28.4354 43.2665C28.5554 43.1365 28.6848 43.0079 28.8236 42.8806C29.7182 42.0599 31.0033 41.2951 32.6791 40.586C34.6893 39.6925 36.9603 39.2456 39.4916 39.2456C45.2245 39.2456 49.9149 40.6976 53.5631 43.6015C57.2112 46.5055 59.8544 50.5263 61.4923 55.664C63.2047 60.7273 64.0236 66.6096 63.9491 73.311C63.9491 76.7362 63.6141 79.8637 62.944 82.6931C62.3484 85.4482 61.269 87.6819 59.7055 89.3945C58.2164 91.0326 56.0945 91.8517 53.3398 91.8517C50.3617 91.8517 48.2398 91.0326 46.9741 89.3945C45.7828 87.6819 45.0756 85.5598 44.8523 83.0282C44.6289 80.422 44.5171 77.816 44.5171 75.2099C44.5171 73.2857 44.3843 71.5472 44.1187 69.9947C43.8397 68.3632 43.4141 66.937 42.8418 65.7161C41.7251 63.259 39.7522 62.0304 36.923 62.0304C34.3916 62.0304 32.5303 63.259 31.3391 65.7161C31.0953 66.2037 30.8765 66.7239 30.6827 67.2769C29.929 69.4266 29.5522 72.071 29.5522 75.2099C29.5522 77.816 29.4406 80.3848 29.2172 82.9165C29.0683 85.4481 28.3983 87.5703 27.2071 89.2828C26.0158 90.921 23.8565 91.7398 20.7295 91.7398C18.4215 91.7398 16.4858 90.8837 14.9223 89.1712C13.4332 87.4586 12.2791 85.2246 11.4602 82.4696C10.6412 79.7146 10.0456 76.7363 9.67329 73.5346C9.37548 70.3328 9.22669 67.2427 9.22669 64.2643C9.22669 61.2859 9.37548 58.233 9.67329 55.1057C9.9711 51.9784 10.4923 49.0744 11.2369 46.3938C12.0558 43.7132 13.2099 41.5539 14.699 39.9158ZM75.899 46.1704C77.388 44.4579 79.6215 43.6015 82.5996 43.6015C85.5777 43.6015 87.774 44.4579 89.1886 46.1704C90.6777 47.8086 91.683 50.4146 92.2041 53.9887C92.4551 55.7096 92.6456 57.6635 92.7756 59.8505C92.9157 62.2056 92.9857 64.8309 92.9857 67.7265C93.0601 73.311 92.837 77.8903 92.3158 81.4644C91.7946 84.964 90.7893 87.5703 89.3003 89.2828C88.3661 90.3572 87.139 91.0946 85.6188 91.495C84.7158 91.7328 83.7094 91.8517 82.5996 91.8517C79.9038 91.8517 77.8181 91.15 76.3424 89.7467C76.1879 89.5998 76.0401 89.4451 75.899 89.2828C74.4844 87.5703 73.5165 84.964 72.9954 81.4644C72.7787 79.7309 72.6058 77.7608 72.4767 75.5543C72.3396 73.2116 72.2519 70.6023 72.2136 67.7265C72.2136 62.142 72.437 57.5627 72.8837 53.9887C73.4049 50.4146 74.4099 47.8086 75.899 46.1704Z" fill="white"/>
<path fill-rule="evenodd" clip-rule="evenodd" d="M40.1149 68.4944C40.1156 68.4945 40.1167 68.4946 40.1173 68.4947C40.1176 68.4948 40.1189 68.4955 40.1192 68.4957C40.1192 68.4957 40.1186 68.4949 40.1173 68.4947C40.1166 68.4946 40.1158 68.4945 40.1149 68.4944Z" fill="white"/>
<path fill-rule="evenodd" clip-rule="evenodd" d="M40.1149 68.4944C40.1134 68.4943 40.1117 68.4942 40.1097 68.4938L40.0997 68.4916C40.0901 68.4894 40.077 68.4866 40.0604 68.4834C40.0551 68.4824 40.0494 68.4813 40.0434 68.4802C40.0147 68.4749 39.8769 68.4176 39.6904 68.3401C39.2564 68.1597 38.5585 67.8696 38.3569 67.8696C37.0946 67.8696 36.5981 68.0134 35.0799 69.4822L34.7988 69.8006L29.9825 72.4537C30.0735 68.7796 30.8438 65.661 33.0774 63.5016C34.3816 62.2393 35.8483 61.4622 37.2952 60.9133C38.4088 60.4908 40.5789 60.2796 41.7769 60.2796C42.8193 60.2796 43.7125 60.4284 44.457 60.7262C45.2016 61.0241 45.9834 61.3591 46.8024 61.7314C47.6213 62.0293 48.6636 62.1783 49.9293 62.1783C50.4319 62.1783 50.9144 62.1493 51.3768 62.0913C53.5861 61.8142 55.3373 60.8752 56.6302 59.2744C58.2681 57.3384 59.0869 55.2907 59.0869 53.1314C59.0869 50.5997 58.2309 48.3288 56.5185 46.3184L61.2954 49.6696C63.2979 53.1314 63.0364 62.3635 56.2457 67.607C55.3559 68.2503 54.3839 68.7841 53.3622 69.2037C51.546 69.9496 49.5727 70.3351 47.6244 70.3351C46.4374 70.3351 45.2802 70.2524 44.1187 69.9947C43.6177 69.8835 43.1158 69.7397 42.6105 69.5559L42.4084 69.4822L42.2129 69.3934C41.9342 69.2668 41.6617 69.1455 41.3956 69.0297L41.3826 69.0241L41.3767 69.0215C40.9393 68.8313 40.5191 68.6557 40.1173 68.4947C40.1167 68.4946 40.1156 68.4945 40.1149 68.4944Z" fill="white"/>
</g>
<defs>
<clipPath id="clip0_122_61">
<rect width="100" height="100" fill="white"/>
</clipPath>
</defs>
</svg>
